<svg xmlns="http://www.w3.org/2000/svg" width="370" height="370" viewBox="0 0 370 370">
  <rect width="370" height="370" fill="#fff"/>
  <g fill="#000"><rect x="190" y="40" width="10" height="10"/><rect x="200" y="40" width="10" height="10"/><rect x="210" y="40" width="10" height="10"/><rect x="220" y="40" width="10" height="10"/><rect x="130" y="50" width="10" height="10"/><rect x="140" y="50" width="10" height="10"/><rect x="150" y="50" width="10" height="10"/><rect x="190" y="50" width="10" height="10"/><rect x="200" y="50" width="10" height="10"/><rect x="220" y="50" width="10" height="10"/><rect x="130" y="60" width="10" height="10"/><rect x="140" y="60" width="10" height="10"/><rect x="160" y="60" width="10" height="10"/><rect x="170" y="60" width="10" height="10"/><rect x="200" y="60" width="10" height="10"/><rect x="220" y="60" width="10" height="10"/><rect x="160" y="70" width="10" height="10"/><rect x="180" y="70" width="10" height="10"/><rect x="200" y="70" width="10" height="10"/><rect x="220" y="70" width="10" height="10"/><rect x="230" y="70" width="10" height="10"/><rect x="120" y="80" width="10" height="10"/><rect x="130" y="80" width="10" height="10"/><rect x="150" y="80" width="10" height="10"/><rect x="160" y="80" width="10" height="10"/><rect x="230" y="80" width="10" height="10"/><rect x="240" y="80" width="10" height="10"/><rect x="120" y="90" width="10" height="10"/><rect x="150" y="90" width="10" height="10"/><rect x="170" y="90" width="10" height="10"/><rect x="180" y="90" width="10" height="10"/><rect x="190" y="90" width="10" height="10"/><rect x="200" y="90" width="10" height="10"/><rect x="210" y="90" width="10" height="10"/><rect x="220" y="90" width="10" height="10"/><rect x="120" y="100" width="10" height="10"/><rect x="130" y="100" width="10" height="10"/><rect x="140" y="100" width="10" height="10"/><rect x="160" y="100" width="10" height="10"/><rect x="170" y="100" width="10" height="10"/><rect x="190" y="100" width="10" height="10"/><rect x="210" y="100" width="10" height="10"/><rect x="140" y="110" width="10" height="10"/><rect x="150" y="110" width="10" height="10"/><rect x="160" y="110" width="10" height="10"/><rect x="170" y="110" width="10" height="10"/><rect x="190" y="110" width="10" height="10"/><rect x="230" y="110" width="10" height="10"/><rect x="60" y="120" width="10" height="10"/><rect x="70" y="120" width="10" height="10"/><rect x="100" y="120" width="10" height="10"/><rect x="140" y="120" width="10" height="10"/><rect x="150" y="120" width="10" height="10"/><rect x="160" y="120" width="10" height="10"/><rect x="170" y="120" width="10" height="10"/><rect x="190" y="120" width="10" height="10"/><rect x="220" y="120" width="10" height="10"/><rect x="230" y="120" width="10" height="10"/><rect x="250" y="120" width="10" height="10"/><rect x="270" y="120" width="10" height="10"/><rect x="40" y="130" width="10" height="10"/><rect x="60" y="130" width="10" height="10"/><rect x="70" y="130" width="10" height="10"/><rect x="80" y="130" width="10" height="10"/><rect x="90" y="130" width="10" height="10"/><rect x="120" y="130" width="10" height="10"/><rect x="140" y="130" width="10" height="10"/><rect x="170" y="130" width="10" height="10"/><rect x="180" y="130" width="10" height="10"/><rect x="220" y="130" width="10" height="10"/><rect x="250" y="130" width="10" height="10"/><rect x="260" y="130" width="10" height="10"/><rect x="270" y="130" width="10" height="10"/><rect x="280" y="130" width="10" height="10"/><rect x="290" y="130" width="10" height="10"/><rect x="300" y="130" width="10" height="10"/><rect x="320" y="130" width="10" height="10"/><rect x="40" y="140" width="10" height="10"/><rect x="50" y="140" width="10" height="10"/><rect x="60" y="140" width="10" height="10"/><rect x="70" y="140" width="10" height="10"/><rect x="90" y="140" width="10" height="10"/><rect x="110" y="140" width="10" height="10"/><rect x="130" y="140" width="10" height="10"/><rect x="150" y="140" width="10" height="10"/><rect x="160" y="140" width="10" height="10"/><rect x="180" y="140" width="10" height="10"/><rect x="220" y="140" width="10" height="10"/><rect x="230" y="140" width="10" height="10"/><rect x="270" y="140" width="10" height="10"/><rect x="280" y="140" width="10" height="10"/><rect x="290" y="140" width="10" height="10"/><rect x="80" y="150" width="10" height="10"/><rect x="90" y="150" width="10" height="10"/><rect x="100" y="150" width="10" height="10"/><rect x="110" y="150" width="10" height="10"/><rect x="180" y="150" width="10" height="10"/><rect x="210" y="150" width="10" height="10"/><rect x="220" y="150" width="10" height="10"/><rect x="230" y="150" width="10" height="10"/><rect x="240" y="150" width="10" height="10"/><rect x="250" y="150" width="10" height="10"/><rect x="270" y="150" width="10" height="10"/><rect x="280" y="150" width="10" height="10"/><rect x="300" y="150" width="10" height="10"/><rect x="310" y="150" width="10" height="10"/><rect x="320" y="150" width="10" height="10"/><rect x="40" y="160" width="10" height="10"/><rect x="70" y="160" width="10" height="10"/><rect x="80" y="160" width="10" height="10"/><rect x="100" y="160" width="10" height="10"/><rect x="140" y="160" width="10" height="10"/><rect x="150" y="160" width="10" height="10"/><rect x="160" y="160" width="10" height="10"/><rect x="170" y="160" width="10" height="10"/><rect x="180" y="160" width="10" height="10"/><rect x="200" y="160" width="10" height="10"/><rect x="230" y="160" width="10" height="10"/><rect x="240" y="160" width="10" height="10"/><rect x="250" y="160" width="10" height="10"/><rect x="260" y="160" width="10" height="10"/><rect x="280" y="160" width="10" height="10"/><rect x="310" y="160" width="10" height="10"/><rect x="40" y="170" width="10" height="10"/><rect x="60" y="170" width="10" height="10"/><rect x="100" y="170" width="10" height="10"/><rect x="140" y="170" width="10" height="10"/><rect x="150" y="170" width="10" height="10"/><rect x="170" y="170" width="10" height="10"/><rect x="180" y="170" width="10" height="10"/><rect x="190" y="170" width="10" height="10"/><rect x="210" y="170" width="10" height="10"/><rect x="220" y="170" width="10" height="10"/><rect x="240" y="170" width="10" height="10"/><rect x="250" y="170" width="10" height="10"/><rect x="260" y="170" width="10" height="10"/><rect x="270" y="170" width="10" height="10"/><rect x="280" y="170" width="10" height="10"/><rect x="320" y="170" width="10" height="10"/><rect x="80" y="180" width="10" height="10"/><rect x="90" y="180" width="10" height="10"/><rect x="130" y="180" width="10" height="10"/><rect x="150" y="180" width="10" height="10"/><rect x="190" y="180" width="10" height="10"/><rect x="220" y="180" width="10" height="10"/><rect x="230" y="180" width="10" height="10"/><rect x="250" y="180" width="10" height="10"/><rect x="270" y="180" width="10" height="10"/><rect x="320" y="180" width="10" height="10"/><rect x="40" y="190" width="10" height="10"/><rect x="120" y="190" width="10" height="10"/><rect x="140" y="190" width="10" height="10"/><rect x="160" y="190" width="10" height="10"/><rect x="180" y="190" width="10" height="10"/><rect x="190" y="190" width="10" height="10"/><rect x="200" y="190" width="10" height="10"/><rect x="210" y="190" width="10" height="10"/><rect x="240" y="190" width="10" height="10"/><rect x="250" y="190" width="10" height="10"/><rect x="260" y="190" width="10" height="10"/><rect x="270" y="190" width="10" height="10"/><rect x="280" y="190" width="10" height="10"/><rect x="290" y="190" width="10" height="10"/><rect x="300" y="190" width="10" height="10"/><rect x="310" y="190" width="10" height="10"/><rect x="60" y="200" width="10" height="10"/><rect x="70" y="200" width="10" height="10"/><rect x="80" y="200" width="10" height="10"/><rect x="90" y="200" width="10" height="10"/><rect x="110" y="200" width="10" height="10"/><rect x="120" y="200" width="10" height="10"/><rect x="140" y="200" width="10" height="10"/><rect x="150" y="200" width="10" height="10"/><rect x="180" y="200" width="10" height="10"/><rect x="210" y="200" width="10" height="10"/><rect x="230" y="200" width="10" height="10"/><rect x="260" y="200" width="10" height="10"/><rect x="280" y="200" width="10" height="10"/><rect x="290" y="200" width="10" height="10"/><rect x="320" y="200" width="10" height="10"/><rect x="50" y="210" width="10" height="10"/><rect x="80" y="210" width="10" height="10"/><rect x="90" y="210" width="10" height="10"/><rect x="100" y="210" width="10" height="10"/><rect x="110" y="210" width="10" height="10"/><rect x="140" y="210" width="10" height="10"/><rect x="160" y="210" width="10" height="10"/><rect x="170" y="210" width="10" height="10"/><rect x="190" y="210" width="10" height="10"/><rect x="280" y="210" width="10" height="10"/><rect x="290" y="210" width="10" height="10"/><rect x="300" y="210" width="10" height="10"/><rect x="310" y="210" width="10" height="10"/><rect x="320" y="210" width="10" height="10"/><rect x="40" y="220" width="10" height="10"/><rect x="110" y="220" width="10" height="10"/><rect x="120" y="220" width="10" height="10"/><rect x="150" y="220" width="10" height="10"/><rect x="170" y="220" width="10" height="10"/><rect x="180" y="220" width="10" height="10"/><rect x="190" y="220" width="10" height="10"/><rect x="200" y="220" width="10" height="10"/><rect x="230" y="220" width="10" height="10"/><rect x="270" y="220" width="10" height="10"/><rect x="280" y="220" width="10" height="10"/><rect x="310" y="220" width="10" height="10"/><rect x="320" y="220" width="10" height="10"/><rect x="80" y="230" width="10" height="10"/><rect x="90" y="230" width="10" height="10"/><rect x="100" y="230" width="10" height="10"/><rect x="150" y="230" width="10" height="10"/><rect x="160" y="230" width="10" height="10"/><rect x="170" y="230" width="10" height="10"/><rect x="180" y="230" width="10" height="10"/><rect x="220" y="230" width="10" height="10"/><rect x="230" y="230" width="10" height="10"/><rect x="260" y="230" width="10" height="10"/><rect x="300" y="230" width="10" height="10"/><rect x="320" y="230" width="10" height="10"/><rect x="40" y="240" width="10" height="10"/><rect x="60" y="240" width="10" height="10"/><rect x="70" y="240" width="10" height="10"/><rect x="80" y="240" width="10" height="10"/><rect x="130" y="240" width="10" height="10"/><rect x="160" y="240" width="10" height="10"/><rect x="170" y="240" width="10" height="10"/><rect x="180" y="240" width="10" height="10"/><rect x="190" y="240" width="10" height="10"/><rect x="200" y="240" width="10" height="10"/><rect x="210" y="240" width="10" height="10"/><rect x="220" y="240" width="10" height="10"/><rect x="230" y="240" width="10" height="10"/><rect x="240" y="240" width="10" height="10"/><rect x="250" y="240" width="10" height="10"/><rect x="260" y="240" width="10" height="10"/><rect x="270" y="240" width="10" height="10"/><rect x="280" y="240" width="10" height="10"/><rect x="300" y="240" width="10" height="10"/><rect x="310" y="240" width="10" height="10"/><rect x="120" y="250" width="10" height="10"/><rect x="140" y="250" width="10" height="10"/><rect x="170" y="250" width="10" height="10"/><rect x="280" y="250" width="10" height="10"/><rect x="290" y="250" width="10" height="10"/><rect x="300" y="250" width="10" height="10"/><rect x="310" y="250" width="10" height="10"/><rect x="130" y="260" width="10" height="10"/><rect x="150" y="260" width="10" height="10"/><rect x="160" y="260" width="10" height="10"/><rect x="170" y="260" width="10" height="10"/><rect x="220" y="260" width="10" height="10"/><rect x="230" y="260" width="10" height="10"/><rect x="240" y="260" width="10" height="10"/><rect x="270" y="260" width="10" height="10"/><rect x="310" y="260" width="10" height="10"/><rect x="120" y="270" width="10" height="10"/><rect x="280" y="270" width="10" height="10"/><rect x="300" y="270" width="10" height="10"/><rect x="130" y="280" width="10" height="10"/><rect x="140" y="280" width="10" height="10"/><rect x="160" y="280" width="10" height="10"/><rect x="180" y="280" width="10" height="10"/><rect x="190" y="280" width="10" height="10"/><rect x="210" y="280" width="10" height="10"/><rect x="240" y="280" width="10" height="10"/><rect x="250" y="280" width="10" height="10"/><rect x="260" y="280" width="10" height="10"/><rect x="290" y="280" width="10" height="10"/><rect x="300" y="280" width="10" height="10"/><rect x="310" y="280" width="10" height="10"/><rect x="320" y="280" width="10" height="10"/><rect x="180" y="290" width="10" height="10"/><rect x="190" y="290" width="10" height="10"/><rect x="280" y="290" width="10" height="10"/><rect x="310" y="290" width="10" height="10"/><rect x="320" y="290" width="10" height="10"/><rect x="120" y="300" width="10" height="10"/><rect x="150" y="300" width="10" height="10"/><rect x="160" y="300" width="10" height="10"/><rect x="170" y="300" width="10" height="10"/><rect x="180" y="300" width="10" height="10"/><rect x="190" y="300" width="10" height="10"/><rect x="200" y="300" width="10" height="10"/><rect x="210" y="300" width="10" height="10"/><rect x="240" y="300" width="10" height="10"/><rect x="260" y="300" width="10" height="10"/><rect x="290" y="300" width="10" height="10"/><rect x="300" y="300" width="10" height="10"/><rect x="320" y="300" width="10" height="10"/><rect x="140" y="310" width="10" height="10"/><rect x="200" y="310" width="10" height="10"/><rect x="210" y="310" width="10" height="10"/><rect x="230" y="310" width="10" height="10"/><rect x="250" y="310" width="10" height="10"/><rect x="280" y="310" width="10" height="10"/><rect x="290" y="310" width="10" height="10"/><rect x="300" y="310" width="10" height="10"/><rect x="130" y="320" width="10" height="10"/><rect x="140" y="320" width="10" height="10"/><rect x="160" y="320" width="10" height="10"/><rect x="190" y="320" width="10" height="10"/><rect x="210" y="320" width="10" height="10"/><rect x="240" y="320" width="10" height="10"/><rect x="250" y="320" width="10" height="10"/><rect x="280" y="320" width="10" height="10"/><rect x="290" y="320" width="10" height="10"/><rect x="310" y="320" width="10" height="10"/><rect x="320" y="320" width="10" height="10"/>
    <rect x="40" y="40" width="70" height="70"/>
    <rect x="50" y="50" width="50" height="50" fill="#fff"/>
    <rect x="60" y="60" width="30" height="30" fill="#000"/>
    <rect x="260" y="40" width="70" height="70"/>
    <rect x="270" y="50" width="50" height="50" fill="#fff"/>
    <rect x="280" y="60" width="30" height="30" fill="#000"/>
    <rect x="40" y="260" width="70" height="70"/>
    <rect x="50" y="270" width="50" height="50" fill="#fff"/>
    <rect x="60" y="280" width="30" height="30" fill="#000"/></g>
</svg>
